#N canvas 647 125 502 488 12;
#X text 225 197 just 1 arg;
#X floatatom 29 327 5 0 0 0 - - -;
#X obj 30 361 s test/instr/gain-hsl;
#X floatatom 33 393 5 0 0 0 - - -;
#X obj 30 427 s test/\$2/\$3-hsl;
#X obj 110 110 nbx_pre test voices grain;
#X obj 36 119 vsl_pre test GRNS attack;
#X obj 76 248 hrd_pre test casa juan;
#X obj 266 52 tgl_pre test carlos sanchez;
#X obj 258 268 ./customGUI/tgl_pre.red-green test roberto garcia;
#X floatatom 277 311 5 0 0 0 - - -;
#X obj 89 136 hsl_pre test instr gain;
#X obj 89 166 hsl_pre test instr pan;
#X obj 89 196 hsl_pre test;
#X obj 30 16 PresetManager test;
#X obj 267 409 s remote-PRST-change-test;
#X floatatom 262 366 5 0 0 0 - - -;
#X floatatom 342 240 5 0 0 0 - - -;
#X floatatom 76 270 5 0 0 0 - - -;
#X obj 357 70 vrd_pre test esteban calca;
#X obj 352 204 int;
#X connect 1 0 2 0;
#X connect 3 0 4 0;
#X connect 7 0 18 0;
#X connect 9 0 10 0;
#X connect 16 0 15 0;
#X connect 19 0 20 0;
#X connect 20 0 17 0;
