#N canvas 773 180 719 488 12;
#X text 225 197 just 1 arg;
#X floatatom 29 327 5 0 0 0 - - -;
#X obj 30 361 s test/instr/gain-hsl;
#X floatatom 33 393 5 0 0 0 - - -;
#X obj 30 427 s test/\$2/\$3-hsl;
#X obj 110 110 nbx_pre test voices grain;
#X obj 36 119 vsl_pre test GRNS attack;
#X obj 76 248 hrd_pre test casa juan;
#X obj 266 52 tgl_pre test carlos sanchez;
#X obj 258 268 ./customGUI/tgl_pre.red-green test roberto garcia;
#X floatatom 277 311 5 0 0 0 - - -;
#X obj 454 107 else/envelope;
#X obj 451 213 list prepend set;
#X msg 451 262 0 150 0.49 650 1 200 0;
#X obj 451 238 route list;
#X msg 452 82 0 160 0.58 100 0.2 740 0;
#X obj 359 289 msc_pre test grid matrix;
#X obj 89 136 hsl_pre test instr gain;
#X obj 89 166 hsl_pre test instr pan;
#X obj 89 196 hsl_pre test;
#X obj 343 102 vrd_pre test esteban calca;
#X obj 30 16 PresetManager test;
#X connect 1 0 2 0;
#X connect 3 0 4 0;
#X connect 9 0 10 0;
#X connect 11 0 12 0;
#X connect 11 0 16 0;
#X connect 12 0 14 0;
#X connect 14 0 13 0;
#X connect 15 0 11 0;
#X connect 16 0 11 0;
