#N canvas 1983 73 836 559 12;
#X obj 219 355 f;
#X obj 254 281 hsl 128 15 0 127 0 0 empty empty empty -2 -8 0 10 -228856
-1 -1 2400 1;
#X obj 219 13 r \$1-save_preset;
#N canvas 44 146 778 549 RECALL_PRESETS 0;
#X obj 59 402 outlet;
#X obj 59 327 route list;
#X obj 59 258 route list;
#X obj 59 158 list prepend symbol;
#X obj 59 136 makefilename \$1/\$2/\$3-hsl;
#X obj 59 350 route \$1/\$2/\$3-hsl;
#X obj 330 10 r \$1-PRECALL;
#X obj 362 395 outlet;
#X text 489 321 reads Interpolation Time;
#X text 160 252 reads preset value;
#X obj 362 291 route list;
#X obj 362 222 route list;
#X obj 362 154 list prepend symbol;
#X obj 362 132 makefilename \$1-INT.TIME;
#X obj 362 314 route \$1-INT.TIME;
#X obj 223 156 cnv 15 15 15 empty empty CHANGE.GUI 18 7 0 8 -257985
-66577 0;
#X obj 173 369 cnv 15 15 15 empty empty CHANGE.GUI 18 7 0 8 -257985
-66577 0;
#X text 456 47 \$1 is name of "PresetManager" on control;
#X obj 330 37 t b b;
#X obj 362 245 text search \$1-loaded-preset;
#X obj 362 268 text get \$1-loaded-preset;
#X obj 59 281 text search \$1-loaded-preset;
#X obj 59 304 text get \$1-loaded-preset;
#X connect 1 0 5 0;
#X connect 2 0 21 0;
#X connect 3 0 2 0;
#X connect 4 0 3 0;
#X connect 5 0 0 0;
#X connect 6 0 18 0;
#X connect 10 0 14 0;
#X connect 11 0 19 0;
#X connect 12 0 11 0;
#X connect 13 0 12 0;
#X connect 14 0 7 0;
#X connect 18 0 4 0;
#X connect 18 1 13 0;
#X connect 19 0 20 0;
#X connect 20 0 10 0;
#X connect 21 0 22 0;
#X connect 22 0 1 0;
#X restore 442 5 pd RECALL_PRESETS;
#X obj 442 150 line;
#X obj 442 86 pack f f;
#N canvas 389 480 323 333 RECORD_PRESETS 0;
#X obj 30 20 inlet;
#X obj 30 60 list prepend \$1/\$2/\$3-hsl;
#X msg 87 131 1e+15;
#X obj 30 176 text set \$1-loaded-preset;
#X obj 30 92 t a b;
#X connect 0 0 1 0;
#X connect 1 0 4 0;
#X connect 2 0 3 1;
#X connect 4 0 3 0;
#X connect 4 1 2 0;
#X restore 219 487 pd RECORD_PRESETS;
#X obj 21 69 pack f 0;
#X obj 21 16 inlet;
#X obj 442 44 t a b b;
#X obj 542 71 t b b;
#X obj 542 93 i;
#X obj 542 115 pack f 0;
#X obj 442 173 spigot 1;
#X obj 499 118 1;
#X obj 303 211 list prepend set;
#X obj 303 236 route list;
#X obj 418 375 t a a;
#X obj 442 485 outlet;
#X obj 495 395 change;
#X obj 495 420 bang;
#X obj 495 445 0;
#X text 537 433 when mouse moves GUI \, it stops line, f 19;
#X obj 219 42 t b b;
#X text 507 164 switches between preset and RT GUI change, f 17;
#X text 24 430 \$1 PresetManager Link \$2 Module (name of the instrument)
\$3 parameter-(GUI)type, f 23;
#X text 571 1 "search" for GUI value and INT.TIME of Preset, f 18
;
#X text 607 74 records the RT change for line to interpolate from that
new value on next preset, f 23;
#X text 22 99 change from outside;
#X obj 666 324 cnv 10 25 10 empty \$0-label gain 3 5 0 8 -1 -4032 0
;
#X obj 661 261 loadbang;
#X obj 661 339 s \$0-label;
#X obj 643 258 bng 15 250 50 0 empty empty empty 17 7 0 10 -262144
-1 -1;
#X msg 661 301 label \$1;
#X obj 661 282 symbol \$3;
#X obj 78 16 r \$1/\$2/\$3-hsl;
#X text 48 48 receive values remotely;
#X connect 0 0 6 0;
#X connect 1 0 0 1;
#X connect 1 0 17 0;
#X connect 2 0 23 0;
#X connect 3 0 9 0;
#X connect 3 1 5 1;
#X connect 4 0 13 0;
#X connect 5 0 4 0;
#X connect 7 0 4 0;
#X connect 8 0 7 0;
#X connect 9 0 5 0;
#X connect 9 1 14 0;
#X connect 9 2 10 0;
#X connect 10 0 11 0;
#X connect 10 1 1 0;
#X connect 11 0 12 0;
#X connect 12 0 4 0;
#X connect 13 0 15 0;
#X connect 13 0 18 0;
#X connect 14 0 13 1;
#X connect 15 0 16 0;
#X connect 16 0 1 0;
#X connect 17 0 18 0;
#X connect 17 1 19 0;
#X connect 17 1 11 1;
#X connect 19 0 20 0;
#X connect 20 0 21 0;
#X connect 21 0 13 1;
#X connect 23 0 0 0;
#X connect 23 1 1 0;
#X connect 30 0 34 0;
#X connect 32 0 34 0;
#X connect 33 0 31 0;
#X connect 34 0 33 0;
#X connect 35 0 7 0;
#X coords 0 -1 1 1 135 17 2 250 280;
